HIERARCHY
ROOT Hips
{
	OFFSET -344.582550 89.219658 583.924072
	CHANNELS 6 Xposition Yposition Zposition Zrotation Yrotation Xrotation 
	JOINT Spine
	{
		OFFSET 0.000000 8.814246 -2.080107
		CHANNELS 3 Zrotation Yrotation Xrotation
		JOINT Spine1
		{
			OFFSET -0.000000 8.844141 0.000000
			CHANNELS 3 Zrotation Yrotation Xrotation
			JOINT Spine2
			{
				OFFSET 0.000000 11.682268 0.000000
				CHANNELS 3 Zrotation Yrotation Xrotation
				JOINT Spine3
				{
					OFFSET 0.000000 11.746700 0.000000
					CHANNELS 3 Zrotation Yrotation Xrotation
					JOINT Neck
					{
						OFFSET 0.000000 17.658264 0.000000
						CHANNELS 3 Zrotation Yrotation Xrotation
						JOINT Neck1
						{
							OFFSET 0.000000 5.101515 0.000000
							CHANNELS 3 Zrotation Yrotation Xrotation
							JOINT Head
							{
								OFFSET -0.000000 5.101515 -0.000000
								CHANNELS 3 Zrotation Yrotation Xrotation
								JOINT HeadEnd
								{
									OFFSET 0.000000 11.655085 0.000000
									CHANNELS 3 Zrotation Yrotation Xrotation
									End Site
									{
										OFFSET 0.000000 0.000000 0.000000
									}
								}
							}
						}
					}
					JOINT RightShoulder
					{
						OFFSET -2.625389 11.175210 -0.000000
						CHANNELS 3 Zrotation Yrotation Xrotation
						JOINT RightArm
						{
							OFFSET 0.000000 10.434715 0.000000
							CHANNELS 3 Zrotation Yrotation Xrotation
							JOINT RightForeArm
							{
								OFFSET -0.000000 29.628420 -0.000000
								CHANNELS 3 Zrotation Yrotation Xrotation
								JOINT RightHand
								{
									OFFSET 0.000000 22.857611 -0.000000
									CHANNELS 3 Zrotation Yrotation Xrotation
									JOINT RightHandThumb1
									{
										OFFSET -2.867323 3.959563 2.944291
										CHANNELS 3 Zrotation Yrotation Xrotation
										JOINT RightHandThumb2
										{
											OFFSET -0.000000 3.350399 0.000000
											CHANNELS 3 Zrotation Yrotation Xrotation
											JOINT RightHandThumb3
											{
												OFFSET -0.000000 3.756509 0.000000
												CHANNELS 3 Zrotation Yrotation Xrotation
												JOINT RightHandThumb4
												{
													OFFSET -0.000000 3.147345 0.000000
													CHANNELS 3 Zrotation Yrotation Xrotation
													End Site
													{
														OFFSET 0.000000 0.000000 0.000000
													}
												}
											}
										}
									}
									JOINT RightHandIndex1
									{
										OFFSET -0.086752 10.030893 2.345280
										CHANNELS 3 Zrotation Yrotation Xrotation
										JOINT RightHandIndex2
										{
											OFFSET -0.000000 4.061090 -0.000000
											CHANNELS 3 Zrotation Yrotation Xrotation
											JOINT RightHandIndex3
											{
												OFFSET 0.000000 3.248873 -0.000000
												CHANNELS 3 Zrotation Yrotation Xrotation
												JOINT RightHandIndex4
												{
													OFFSET 0.000000 2.639709 -0.000000
													CHANNELS 3 Zrotation Yrotation Xrotation
													End Site
													{
														OFFSET 0.000000 0.000000 0.000000
													}
												}
											}
										}
									}
									JOINT RightHandMiddle1
									{
										OFFSET 0.104102 9.502952 0.006768
										CHANNELS 3 Zrotation Yrotation Xrotation
										JOINT RightHandMiddle2
										{
											OFFSET -0.000000 4.568727 -0.000000
											CHANNELS 3 Zrotation Yrotation Xrotation
											JOINT RightHandMiddle3
											{
												OFFSET -0.000000 3.654981 -0.000000
												CHANNELS 3 Zrotation Yrotation Xrotation
												JOINT RightHandMiddle4
												{
													OFFSET -0.000000 2.741236 -0.000000
													CHANNELS 3 Zrotation Yrotation Xrotation
													End Site
													{
														OFFSET 0.000000 0.000000 0.000000
													}
												}
											}
										}
									}
									JOINT RightHandRing1
									{
										OFFSET 0.086752 8.921708 -2.267442
										CHANNELS 3 Zrotation Yrotation Xrotation
										JOINT RightHandRing2
										{
											OFFSET -0.000000 4.061090 0.000000
											CHANNELS 3 Zrotation Yrotation Xrotation
											JOINT RightHandRing3
											{
												OFFSET 0.000000 3.654981 -0.000000
												CHANNELS 3 Zrotation Yrotation Xrotation
												JOINT RightHandRing4
												{
													OFFSET 0.000000 2.741236 -0.000000
													CHANNELS 3 Zrotation Yrotation Xrotation
													End Site
													{
														OFFSET 0.000000 0.000000 0.000000
													}
												}
											}
										}
									}
									JOINT RightHandPinky1
									{
										OFFSET -0.173504 7.976997 -4.467199
										CHANNELS 3 Zrotation Yrotation Xrotation
										JOINT RightHandPinky2
										{
											OFFSET -0.000000 3.350399 0.000000
											CHANNELS 3 Zrotation Yrotation Xrotation
											JOINT RightHandPinky3
											{
												OFFSET 0.000000 2.842763 -0.000000
												CHANNELS 3 Zrotation Yrotation Xrotation
												JOINT RightHandPinky4
												{
													OFFSET -0.000000 2.639709 0.000000
													CHANNELS 3 Zrotation Yrotation Xrotation
													End Site
													{
														OFFSET 0.000000 0.000000 0.000000
													}
												}
											}
										}
									}
									JOINT RightForeArmEnd
									{
										OFFSET 0.000000 0.000000 0.000000
										CHANNELS 3 Zrotation Yrotation Xrotation
										End Site
										{
											OFFSET 0.000000 0.000000 0.000000
										}
									}
								}
								JOINT RightArmEnd
								{
									OFFSET 0.000000 0.000000 0.000000
									CHANNELS 3 Zrotation Yrotation Xrotation
									End Site
									{
										OFFSET 0.000000 0.000000 0.000000
									}
								}
							}
						}
					}
					JOINT LeftShoulder
					{
						OFFSET 2.625389 11.175210 0.000000
						CHANNELS 3 Zrotation Yrotation Xrotation
						JOINT LeftArm
						{
							OFFSET -0.000000 10.813635 0.000000
							CHANNELS 3 Zrotation Yrotation Xrotation
							JOINT LeftForeArm
							{
								OFFSET 0.000000 28.724781 -0.000000
								CHANNELS 3 Zrotation Yrotation Xrotation
								JOINT LeftHand
								{
									OFFSET 0.644384 25.716167 -0.328871
									CHANNELS 3 Zrotation Yrotation Xrotation
									JOINT LeftHandThumb1
									{
										OFFSET 2.867323 3.959563 2.944291
										CHANNELS 3 Zrotation Yrotation Xrotation
										JOINT LeftHandThumb2
										{
											OFFSET 0.000000 3.350399 -0.000000
											CHANNELS 3 Zrotation Yrotation Xrotation
											JOINT LeftHandThumb3
											{
												OFFSET 0.000000 3.756509 0.000000
												CHANNELS 3 Zrotation Yrotation Xrotation
												JOINT LeftHandThumb4
												{
													OFFSET 0.000000 3.100000 0.000000
													CHANNELS 3 Zrotation Yrotation Xrotation
													End Site
													{
														OFFSET 0.000000 0.000000 0.000000
													}
												}
											}
										}
									}
									JOINT LeftHandIndex1
									{
										OFFSET 0.086752 10.030893 2.345280
										CHANNELS 3 Zrotation Yrotation Xrotation
										JOINT LeftHandIndex2
										{
											OFFSET 0.000000 4.061090 0.000000
											CHANNELS 3 Zrotation Yrotation Xrotation
											JOINT LeftHandIndex3
											{
												OFFSET -0.000000 3.248873 -0.000000
												CHANNELS 3 Zrotation Yrotation Xrotation
												JOINT LeftHandIndex4
												{
													OFFSET -0.000000 2.639709 -0.000000
													CHANNELS 3 Zrotation Yrotation Xrotation
													End Site
													{
														OFFSET 0.000000 0.000000 0.000000
													}
												}
											}
										}
									}
									JOINT LeftHandMiddle1
									{
										OFFSET -0.104102 9.502952 0.006768
										CHANNELS 3 Zrotation Yrotation Xrotation
										JOINT LeftHandMiddle2
										{
											OFFSET 0.000000 4.568727 0.000000
											CHANNELS 3 Zrotation Yrotation Xrotation
											JOINT LeftHandMiddle3
											{
												OFFSET -0.000000 3.654981 -0.000000
												CHANNELS 3 Zrotation Yrotation Xrotation
												JOINT LeftHandMiddle4
												{
													OFFSET -0.000000 2.741236 -0.000000
													CHANNELS 3 Zrotation Yrotation Xrotation
													End Site
													{
														OFFSET 0.000000 0.000000 0.000000
													}
												}
											}
										}
									}
									JOINT LeftHandRing1
									{
										OFFSET -0.086752 8.921708 -2.267442
										CHANNELS 3 Zrotation Yrotation Xrotation
										JOINT LeftHandRing2
										{
											OFFSET 0.000000 4.061090 0.000000
											CHANNELS 3 Zrotation Yrotation Xrotation
											JOINT LeftHandRing3
											{
												OFFSET -0.000000 3.654981 -0.000000
												CHANNELS 3 Zrotation Yrotation Xrotation
												JOINT LeftHandRing4
												{
													OFFSET -0.000000 2.741236 -0.000000
													CHANNELS 3 Zrotation Yrotation Xrotation
													End Site
													{
														OFFSET 0.000000 0.000000 0.000000
													}
												}
											}
										}
									}
									JOINT LeftHandPinky1
									{
										OFFSET 0.173504 7.976997 -4.467199
										CHANNELS 3 Zrotation Yrotation Xrotation
										JOINT LeftHandPinky2
										{
											OFFSET 0.000000 3.350399 0.000000
											CHANNELS 3 Zrotation Yrotation Xrotation
											JOINT LeftHandPinky3
											{
												OFFSET 0.000000 2.842763 0.000000
												CHANNELS 3 Zrotation Yrotation Xrotation
												JOINT LeftHandPinky4
												{
													OFFSET 0.000000 2.639709 -0.000000
													CHANNELS 3 Zrotation Yrotation Xrotation
													End Site
													{
														OFFSET 0.000000 0.000000 0.000000
													}
												}
											}
										}
									}
									JOINT LeftForeArmEnd
									{
										OFFSET 0.000000 0.000000 0.000000
										CHANNELS 3 Zrotation Yrotation Xrotation
										End Site
										{
											OFFSET 0.000000 0.000000 0.000000
										}
									}
								}
								JOINT LeftArmEnd
								{
									OFFSET 0.000000 0.000000 0.000000
									CHANNELS 3 Zrotation Yrotation Xrotation
									End Site
									{
										OFFSET 0.000000 0.000000 0.000000
									}
								}
							}
						}
					}
				}
			}
		}
	}
	JOINT RightUpLeg
	{
		OFFSET -11.289943 0.000000 -0.000000
		CHANNELS 3 Zrotation Yrotation Xrotation
		JOINT RightLeg
		{
			OFFSET -0.000000 -38.200325 -0.000000
			CHANNELS 3 Zrotation Yrotation Xrotation
			JOINT RightFoot
			{
				OFFSET -0.000000 -39.900856 0.000000
				CHANNELS 3 Zrotation Yrotation Xrotation
				JOINT RightToeBase
				{
					OFFSET 0.000000 -0.000000 15.261641
					CHANNELS 3 Zrotation Yrotation Xrotation
					JOINT RightToeBaseEnd
					{
						OFFSET -0.000000 -0.000000 7.370709
						CHANNELS 3 Zrotation Yrotation Xrotation
						End Site
						{
							OFFSET 0.000000 0.000000 0.000000
						}
					}
				}
				JOINT RightLegEnd
				{
					OFFSET 0.000000 0.000000 0.000000
					CHANNELS 3 Zrotation Yrotation Xrotation
					End Site
					{
						OFFSET 0.000000 0.000000 0.000000
					}
				}
			}
			JOINT RightUpLegEnd
			{
				OFFSET 0.000000 0.000000 0.000000
				CHANNELS 3 Zrotation Yrotation Xrotation
				End Site
				{
					OFFSET 0.000000 0.000000 0.000000
				}
			}
		}
	}
	JOINT LeftUpLeg
	{
		OFFSET 11.315661 -0.000000 0.000000
		CHANNELS 3 Zrotation Yrotation Xrotation
		JOINT LeftLeg
		{
			OFFSET -0.000000 -38.200325 -0.000000
			CHANNELS 3 Zrotation Yrotation Xrotation
			JOINT LeftFoot
			{
				OFFSET -0.000000 -39.900856 0.000000
				CHANNELS 3 Zrotation Yrotation Xrotation
				JOINT LeftToeBase
				{
					OFFSET 0.000000 -0.000000 15.261641
					CHANNELS 3 Zrotation Yrotation Xrotation
					JOINT LeftToeBaseEnd
					{
						OFFSET -0.000000 0.000000 7.539996
						CHANNELS 3 Zrotation Yrotation Xrotation
						End Site
						{
							OFFSET 0.000000 0.000000 0.000000
						}
					}
				}
				JOINT LeftLegEnd
				{
					OFFSET 0.000000 0.000000 0.000000
					CHANNELS 3 Zrotation Yrotation Xrotation
					End Site
					{
						OFFSET 0.000000 0.000000 0.000000
					}
				}
			}
			JOINT LeftUpLegEnd
			{
				OFFSET 0.000000 0.000000 0.000000
				CHANNELS 3 Zrotation Yrotation Xrotation
				End Site
				{
					OFFSET 0.000000 0.000000 0.000000
				}
			}
		}
	}
}
MOTION
Frames: 4
Frame Time: 0.016667
-0.411506 86.320979 0.390190 -3.380415 11.265539 -20.431525 4.811725 -1.133944 8.467260 -0.034169 -0.115061 2.041118 0.257456 -2.777323 14.781723 -0.009776 -1.009526 8.286613 13.956392 -3.767697 14.275050 1.359851 1.335306 0.239846 1.030082 -0.485684 -18.993265 0.000000 0.000000 0.000000 91.678900 -0.470987 13.223212 60.198828 11.444481 12.619134 -1.791008 19.925490 89.832256 -38.995404 7.360177 -1.914486 13.490309 32.595662 68.995843 0.000003 0.000003 0.000519 0.000134 -0.000001 -0.000376 0.000000 0.000000 0.000000 -21.644655 -4.891045 10.490776 0.000105 0.599508 -0.315781 0.000050 0.094068 -0.285665 0.000000 0.000000 0.000000 -20.366737 -0.032153 6.790515 0.004021 0.566760 -0.120788 -0.002030 0.047199 -0.110482 0.000000 0.000000 0.000000 -19.128421 7.823226 1.367984 0.003584 -1.075092 0.082688 -0.001806 -0.075587 0.056627 0.000000 0.000000 0.000000 -18.226603 16.016077 -3.214674 0.000229 -2.127328 -0.000220 -0.000123 -0.103965 0.000215 0.000000 0.000000 0.000000 0.000000 0.000000 0.000000 0.000000 0.000000 0.000000 -90.823642 0.162032 10.124108 -64.369336 -17.804309 10.831805 -2.075947 -16.786271 95.834843 34.285277 -15.127787 -2.408678 -13.438153 -32.590098 68.899339 0.011028 0.011022 -0.021425 0.011023 0.011028 -0.022674 0.000000 0.000000 0.000000 24.014936 -12.392662 25.038463 0.001484 0.666648 -0.000405 -0.000830 0.227906 0.000393 0.000000 0.000000 0.000000 27.178093 -8.115420 16.470913 0.000406 0.624903 0.006121 0.000013 0.113269 0.000115 0.000000 0.000000 0.000000 29.555752 -0.421760 6.562788 0.000479 -1.192902 -0.028652 -0.000012 -0.145315 -0.022866 0.000000 0.000000 0.000000 27.475599 8.277524 -1.853807 -0.000064 -2.217860 -0.000011 -0.000049 -0.184543 0.006136 0.000000 0.000000 0.000000 0.000000 0.000000 0.000000 0.000000 0.000000 0.000000 5.477537 -12.683752 20.453760 -0.131751 -0.576614 13.252323 -10.554886 -12.863674 10.748207 -0.205682 0.923955 -13.349499 0.000000 0.000000 0.000000 0.000000 0.000000 0.000000 0.000000 0.000000 0.000000 14.348128 -8.758409 12.423849 0.602170 1.372797 22.209757 -5.982780 -0.169681 10.740358 1.431716 -1.062137 -20.116857 0.000000 0.000000 0.000000 0.000000 0.000000 0.000000 0.000000 0.000000 0.000000 
-0.410087 86.321189 0.388149 -3.376721 11.265726 -20.438044 4.809691 -1.135875 8.472439 -0.034509 -0.119589 2.060673 0.266607 -2.802496 14.730915 -0.000806 -1.020320 8.268750 13.971745 -3.740657 14.391946 1.359932 1.366515 0.303323 1.019305 -0.485356 -18.986047 0.000000 0.000000 0.000000 91.667996 -0.466637 13.216244 60.326180 12.511482 12.887709 -1.902479 19.629234 91.970596 -40.767236 5.698819 -0.368129 13.491872 32.595786 68.996977 0.000003 0.000003 -0.001072 0.000134 -0.000001 0.000384 0.000000 0.000000 0.000000 -20.695665 -5.047431 10.731874 -0.000020 0.600044 -0.318590 0.000087 0.094893 -0.288203 0.000000 0.000000 0.000000 -19.414130 -0.190404 6.980965 -0.002847 0.567596 -0.122841 0.002040 0.047473 -0.112276 0.000000 0.000000 0.000000 -18.220596 7.672496 1.364865 -0.002807 -1.075535 0.082959 0.001655 -0.076033 0.056781 0.000000 0.000000 0.000000 -17.533640 15.882635 -3.551199 -0.000925 -2.127838 -0.000223 0.000495 -0.104376 0.000218 0.000000 0.000000 0.000000 0.000000 0.000000 0.000000 0.000000 0.000000 0.000000 -90.790719 0.156228 10.130832 -64.315710 -18.660144 11.028207 -2.117110 -16.573099 97.932847 35.236073 -13.850080 -1.444839 -13.440691 -32.590008 68.900573 0.011028 0.011022 -0.022989 0.011023 0.011028 -0.021938 0.000000 0.000000 0.000000 23.993748 -12.367653 25.693643 -0.042649 0.668187 -0.000414 0.023737 0.229595 0.000401 0.000000 0.000000 0.000000 27.242461 -8.123864 16.747671 0.000518 0.625874 0.006226 -0.000045 0.113707 0.000123 0.000000 0.000000 0.000000 29.649182 -0.436355 6.460449 0.000437 -1.194202 -0.029935 0.000014 -0.146446 -0.023872 0.000000 0.000000 0.000000 27.465820 8.256352 -2.378235 -0.000460 -2.219356 -0.000016 0.000026 -0.185872 0.006141 0.000000 0.000000 0.000000 0.000000 0.000000 0.000000 0.000000 0.000000 0.000000 5.473724 -12.682582 20.451860 -0.131675 -0.576956 13.261238 -10.552373 -12.865670 10.744848 -0.207385 0.923257 -13.347811 0.000000 0.000000 0.000000 0.000000 0.000000 0.000000 0.000000 0.000000 0.000000 14.346160 -8.751912 12.431300 0.602173 1.372714 22.208967 -5.975521 -0.177547 10.740954 1.429988 -1.062862 -20.115975 0.000000 0.000000 0.000000 0.000000 0.000000 0.000000 0.000000 0.000000 0.000000 
-0.408918 86.320695 0.384810 -3.373728 11.265308 -20.444980 4.807919 -1.138180 8.483449 -0.034767 -0.122881 2.077209 0.271315 -2.823891 14.676001 0.004360 -1.029717 8.247615 13.988056 -3.713289 14.511047 1.359835 1.395054 0.371794 1.014274 -0.484704 -18.977976 0.000000 0.000000 0.000000 91.665188 -0.464259 13.211713 60.465922 13.539394 13.179027 -2.001233 19.388129 93.983061 -42.398832 4.129701 1.274970 13.492163 32.596340 68.995865 0.000003 0.000003 0.000905 0.000134 -0.000001 -0.000442 0.000000 0.000000 0.000000 -19.727596 -5.206919 11.165985 0.001303 0.600557 -0.321185 -0.000682 0.095689 -0.290660 0.000000 0.000000 0.000000 -18.485372 -0.345789 7.243653 0.001953 0.568401 -0.124878 -0.000623 0.047737 -0.114061 0.000000 0.000000 0.000000 -17.459331 7.544579 1.333406 0.002433 -1.075964 0.083207 -0.001057 -0.076465 0.056920 0.000000 0.000000 0.000000 -17.123324 15.789895 -3.993260 0.004244 -2.128318 -0.000228 -0.002268 -0.104760 0.000222 0.000000 0.000000 0.000000 0.000000 0.000000 0.000000 0.000000 0.000000 0.000000 -90.762322 0.151251 10.139677 -64.266198 -19.453132 11.237449 -2.142988 -16.340128 99.862622 36.298653 -12.544522 -0.252507 -13.442319 -32.590550 68.900252 0.011028 0.011022 -0.022086 0.011023 0.011028 -0.022360 0.000000 0.000000 0.000000 23.555726 -12.269010 26.317568 -0.011013 0.669683 -0.000422 0.006153 0.231222 0.000408 0.000000 0.000000 0.000000 26.948820 -8.077290 16.923259 -0.000154 0.626813 0.006330 0.000288 0.114129 0.000130 0.000000 0.000000 0.000000 29.399419 -0.399014 6.178443 0.000449 -1.195476 -0.031253 -0.000044 -0.147492 -0.024887 0.000000 0.000000 0.000000 27.124223 8.270884 -3.218633 -0.000369 -2.220828 -0.000021 -0.000042 -0.187041 0.006145 0.000000 0.000000 0.000000 0.000000 0.000000 0.000000 0.000000 0.000000 0.000000 5.470679 -12.677859 20.449001 -0.131615 -0.577309 13.281074 -10.549610 -12.868329 10.736372 -0.209206 0.922531 -13.346332 0.000000 0.000000 0.000000 0.000000 0.000000 0.000000 0.000000 0.000000 0.000000 14.342918 -8.749073 12.439706 0.602165 1.372608 22.208845 -5.969457 -0.179460 10.740611 1.428344 -1.063508 -20.114804 0.000000 0.000000 0.000000 0.000000 0.000000 0.000000 0.000000 0.000000 0.000000 
-0.407724 86.320898 0.383034 -3.371015 11.264398 -20.453436 4.806452 -1.141455 8.489918 -0.034868 -0.128312 2.097620 0.279290 -2.844746 14.629743 0.006171 -1.038031 8.230536 13.998787 -3.684569 14.627274 1.359499 1.423138 0.437898 1.006690 -0.484155 -18.974746 0.000000 0.000000 0.000000 91.663407 -0.462133 13.207979 60.651967 14.625588 13.517154 -2.090292 19.078040 95.795070 -43.908617 2.792880 3.209313 13.493906 32.596118 68.998044 0.000003 0.000003 -0.002739 0.000134 -0.000001 0.001309 0.000000 0.000000 0.000000 -19.060728 -5.317919 11.379603 -0.005394 0.601055 -0.323657 0.003007 0.096447 -0.292940 0.000000 0.000000 0.000000 -17.882929 -0.446822 7.235147 -0.000770 0.569160 -0.126904 0.000748 0.047990 -0.115825 0.000000 0.000000 0.000000 -17.037621 7.471456 1.110851 -0.002887 -1.076380 0.083434 0.001578 -0.076881 0.057043 0.000000 0.000000 0.000000 -16.955636 15.745892 -4.350938 -0.028652 -2.128770 -0.000233 0.015295 -0.105118 0.000225 0.000000 0.000000 0.000000 0.000000 0.000000 0.000000 0.000000 0.000000 0.000000 -90.737712 0.146958 10.150084 -64.239916 -20.198841 11.459133 -2.172711 -16.085202 101.709377 37.496897 -11.063725 0.981609 -13.444007 -32.591278 68.900178 0.011028 0.011022 -0.021707 0.011023 0.011028 -0.022534 0.000000 0.000000 0.000000 23.119496 -12.190409 26.503604 0.005116 0.671126 -0.000430 -0.003040 0.232768 0.000415 0.000000 0.000000 0.000000 26.578252 -8.020064 16.866305 0.002403 0.627703 0.006432 -0.001177 0.114537 0.000138 0.000000 0.000000 0.000000 29.042519 -0.345559 5.838251 -0.000059 -1.196730 -0.032584 0.000142 -0.148416 -0.025907 0.000000 0.000000 0.000000 26.716149 8.300546 -3.905972 -0.001201 -2.222218 -0.000027 -0.000037 -0.187967 0.006145 0.000000 0.000000 0.000000 0.000000 0.000000 0.000000 0.000000 0.000000 0.000000 5.468330 -12.669704 20.445582 -0.131571 -0.577659 13.291044 -10.545817 -12.872930 10.733790 -0.211043 0.921810 -13.343828 0.000000 0.000000 0.000000 0.000000 0.000000 0.000000 0.000000 0.000000 0.000000 14.338371 -8.747477 12.450452 0.602145 1.372490 22.209369 -5.964979 -0.177882 10.739466 1.426967 -1.064008 -20.112926 0.000000 0.000000 0.000000 0.000000 0.000000 0.000000 0.000000 0.000000 0.000000 
